# xmcd
#
# Track frame offsets: 
#        150
#        25500
#        50850
#        77069
#        98464
#        121551
#        151190
#        172486
#        204694
#        229295
#        254859
#        290565
#        318274
#        348332
#
# Disc length: 5098 seconds
#
# Revision: 0
# Processed by: cddbd v1.5.2PL0 Copyright (c) Steve Scherf et al.
# Submitted via: ExactAudioCopy v1.0b4
#
DISCID=c513e80e
DTITLE=Pinetop Perkins - Live at Antone's, Vol. 1
DYEAR=1995
DGENRE=Blues
TTITLE0=Got My Mojo Working
TTITLE1=Pinetop's Mambo
TTITLE2=I Almost Lost My Mind
TTITLE3=Look on Yonder's Wall
TTITLE4=Big Fat Mama
TTITLE5=I'm Your Hoochie Coochie Man
TTITLE6=Just a Little Bit
TTITLE7=Caldonia (What Makes Your Big Head So Hard?)
TTITLE8=Hi-Heel Sneakers
TTITLE9=Chicken Shack
TTITLE10=How Long Blues
TTITLE11=Sweet Home Chicag
TTITLE12=Pinetop's Boogie Woogie
TTITLE13=Baby, What You Want Me To Do
EXTD=
EXTT0=
EXTT1=
EXTT2=
EXTT3=
EXTT4=
EXTT5=
EXTT6=
EXTT7=
EXTT8=
EXTT9=
EXTT10=
EXTT11=
EXTT12=
EXTT13=
PLAYORDER=
